<?xml version="1.0" encoding="UTF-8"?>
<svg id="Calque_1" data-name="Calque 1" xmlns="http://www.w3.org/2000/svg" viewBox="0 0 927.57 437.64">
  <defs>
    <style>
      .cls-1 {
        fill: #000;
        stroke-width: 0px;
      }
    </style>
  </defs>
  <polygon class="cls-1" points="800.96 421.34 800.5 421.34 764.87 319.69 753.64 319.69 795.46 434.91 806 434.91 847.82 319.69 836.67 319.69 800.96 421.34"/>
  <polygon class="cls-1" points="477.05 434.91 544.51 434.91 544.51 425.01 487.58 425.01 487.58 380.77 541.65 380.77 541.65 371.03 487.58 371.03 487.58 329.59 544.51 329.59 544.51 319.69 477.05 319.69 477.05 434.91"/>
  <polygon class="cls-1" points="927.53 329.59 927.53 319.69 860.06 319.69 860.06 434.91 927.53 434.91 927.53 425.01 870.6 425.01 870.6 380.77 924.66 380.77 924.66 371.03 870.6 371.03 870.6 329.59 927.53 329.59"/>
  <polygon class="cls-1" points="713.9 310.58 699.65 287.5 688.03 287.5 705.69 310.58 713.9 310.58"/>
  <path class="cls-1" d="M411.6,386.6h34.7v4.07c0,21.72-14.25,35.93-35.86,35.93-23.93,0-39.35-19.56-39.35-49.99s15.1-48.63,39.35-48.63c17.04,0,30.13,9.9,34.7,26.35h11c-4.18-22.04-22.23-36.49-45.7-36.49-30.52,0-50.19,23.08-50.19,58.77s19.91,60.13,50.19,60.13,46.4-18.2,46.4-48.63v-11.1h-45.23v9.58Z"/>
  <polygon class="cls-1" points="642.26 415.91 641.72 415.91 576.19 319.69 565.73 319.69 565.73 434.91 576.19 434.91 576.19 338.61 576.73 338.61 642.49 434.91 652.72 434.91 652.72 319.69 642.26 319.69 642.26 415.91"/>
  <polygon class="cls-1" points="676.8 434.91 744.26 434.91 744.26 425.01 687.33 425.01 687.33 380.77 741.4 380.77 741.4 371.03 687.33 371.03 687.33 329.59 744.26 329.59 744.26 319.69 676.8 319.69 676.8 434.91"/>
  <polygon class="cls-1" points="130.5 435 192.5 435 192.5 414.13 151.16 414.13 151.16 388.8 181.97 388.8 181.97 368.13 151.16 368.13 151.16 341.38 192.5 341.38 192.5 320.71 130.5 320.71 130.5 435"/>
  <path class="cls-1" d="M57.75,397.51l37.08.41c-1.62,2.43-3.44,4.86-5.67,7.09-7.29,7.29-17.83,11.95-28.98,11.95s-20.67-4.46-27.76-11.55c-7.09-7.29-11.55-17.02-11.55-27.97s4.46-20.67,11.55-27.76c7.09-7.29,17.02-11.75,27.76-11.75,6.48,0,12.56,1.62,18.04,4.46,5.47,2.84,10.34,6.89,13.98,11.96l16.82-12.16c-5.47-7.7-12.97-13.98-21.48-18.44-8.11-4.05-17.43-6.48-27.36-6.48-16.41,0-31.61,6.69-42.55,17.63C6.89,345.84,0,360.83,0,377.45s6.89,31.61,17.63,42.55c10.94,10.94,25.94,17.63,42.55,17.63s32.62-6.89,43.77-18.04c10.94-10.94,16.62-25.94,16.62-42.55v-.2h-62.82v20.67Z"/>
  <polygon class="cls-1" points="310.44 320.51 299.69 342.8 275.38 392.85 251.26 342.8 240.52 320.51 232.22 344.02 200 435 221.88 435 243.36 374.21 275.38 435 307.39 374.21 329.08 435 350.96 435 318.74 344.02 310.44 320.51"/>
  <path class="cls-1" d="M514.34,26.13L504.62,0l-12.56,24.78-28.19,55.62-28.43-55.62L422.9,0l-9.72,26.13-37.66,101.12,37.67,102.73,9.72,26.54,12.55-25.17,28.43-56.51,28.18,56.51,12.56,25.17,9.71-26.54,37.67-102.73h0l-37.66-101.12ZM501.31,195.89l-37.43-68.64-37.43,68.64-25.35-68.64,25.35-67.57,37.43,67.57,37.43-67.57,25.11,67.57h0l-25.11,68.64Z"/>
</svg>